<svg width="121" height="121" viewBox="0 0 121 121" fill="none" xmlns="http://www.w3.org/2000/svg">
<g clip-path="url(#clip0_7268_10097)">
<path d="M89.1245 27.9623C88.9518 22.6927 84.9016 18.4768 79.9276 18.4768C74.9536 18.4768 70.9034 22.6927 70.7307 27.9623H89.1245Z" fill="#FAFAFA"/>
<path d="M79.9276 18.4768C79.0269 18.4768 78.1573 18.6167 77.3346 18.8745C81.0546 20.0399 83.7972 23.647 83.9388 27.9625H89.1245C88.9518 22.6927 84.9016 18.4768 79.9276 18.4768Z" fill="#FAFAFA"/>
<path d="M21.7557 94.1997H31.9539L22.8759 116.843H3.80915C2.6684 116.843 1.74341 115.919 1.74341 114.778V114.212C1.74364 103.159 10.7033 94.1997 21.7557 94.1997Z" fill="#FAFAFA"/>
<path d="M18.678 94.4353C13.462 100.857 9.68002 108.489 7.81067 116.843H22.8759L31.9539 94.1997H21.7554C20.709 94.1997 19.6812 94.2805 18.678 94.4353Z" fill="#FAFAFA"/>
<path d="M99.2443 94.1997H89.0461L98.1242 116.843H117.191C118.331 116.843 119.256 115.919 119.256 114.778V114.212C119.256 103.159 110.297 94.1997 99.2443 94.1997Z" fill="#FAFAFA"/>
<path d="M99.2444 94.1997H91.6757C102.728 94.1997 111.688 103.159 111.688 114.212V114.778C111.688 115.918 110.763 116.843 109.622 116.843H117.191C118.331 116.843 119.256 115.919 119.256 114.778V114.212C119.256 103.159 110.297 94.1997 99.2444 94.1997Z" fill="#FAFAFA"/>
<path d="M16.0836 116.843H104.916C101.426 95.4592 82.8706 79.1377 60.5 79.1377C38.1294 79.1377 19.5737 95.4592 16.0836 116.843Z" fill="#FAFAFA"/>
<path d="M104.916 116.843C101.426 95.4592 82.8706 79.1377 60.5 79.1377C58.6167 79.1377 56.7613 79.2556 54.9387 79.4801C73.5961 81.7796 88.7171 95.4958 93.0986 113.426C93.5233 115.164 92.2133 116.843 90.4239 116.843H104.916Z" fill="#FAFAFA"/>
<path d="M28.0274 63.3202H9.17853C7.22079 63.3202 5.63361 61.733 5.63361 59.7752V53.102C5.63361 51.1443 7.22079 49.5571 9.17853 49.5571H28.0271V63.3202H28.0274Z" fill="#FAFAFA"/>
<path d="M92.9727 49.5571H111.592C113.55 49.5571 115.137 51.1443 115.137 53.102V59.7752C115.137 61.733 113.55 63.3202 111.592 63.3202H92.9727V49.5571Z" fill="#FAFAFA"/>
<path d="M11.7564 49.5571V54.3477C11.7564 56.2492 10.2151 57.7906 8.31357 57.7906H5.63361V59.7755C5.63361 61.7332 7.22079 63.3204 9.17853 63.3204H28.0271V49.5571H11.7564Z" fill="#E5E5E5"/>
<path d="M111.592 49.5571H109.607V54.3477C109.607 56.2492 108.066 57.7906 106.164 57.7906H92.9727V63.3204H111.592C113.55 63.3204 115.137 61.7332 115.137 59.7755V53.102C115.137 51.1441 113.55 49.5571 111.592 49.5571Z" fill="#E5E5E5"/>
<path d="M88.9532 86.4371H32.0468C24.2156 86.4371 17.8671 80.0886 17.8671 72.2574V40.6504C17.8671 32.8192 24.2156 26.4707 32.0468 26.4707H88.9532C96.7844 26.4707 103.133 32.8192 103.133 40.6504V72.2574C103.133 80.0886 96.7844 86.4371 88.9532 86.4371Z" fill="#FAFAFA"/>
<path d="M95.024 27.8345C95.8974 29.675 96.3876 31.7327 96.3876 33.9053V69.9519C96.3876 75.3312 92.0269 79.692 86.6476 79.692H25.3015C23.1289 79.692 21.0712 79.2018 19.2307 78.3283C21.5054 83.1218 26.3881 86.4372 32.0468 86.4372H88.9532C96.7844 86.4372 103.133 80.0888 103.133 72.2576V40.6505C103.133 34.9919 99.8174 30.1091 95.024 27.8345Z" fill="#E5E5E5"/>
<path d="M68.0816 96.3704H52.9183C47.9585 96.3704 43.9379 100.391 43.9379 105.351V116.843H77.0621V105.351C77.0621 100.391 73.0414 96.3704 68.0816 96.3704Z" fill="#FAFAFA"/>
<path d="M68.0816 96.3704H61.2213C66.1747 96.3704 70.1904 100.386 70.1904 105.339V116.843H77.0621V105.351C77.0621 100.391 73.0414 96.3704 68.0816 96.3704Z" fill="#E5E5E5"/>
<path d="M80.353 75.192H40.6468C34.917 75.192 30.272 70.5469 30.272 64.8172C30.272 50.8395 41.6032 39.5083 55.5808 39.5083H65.4189C79.3965 39.5083 90.7278 50.8395 90.7278 64.8172C90.7278 70.5472 86.0827 75.192 80.353 75.192Z" fill="#97E0F5"/>
<path d="M65.4189 39.5085H55.5811C55.0184 39.5085 54.4604 39.5289 53.9067 39.565C67.1035 40.4274 77.5409 51.4025 77.5409 64.8174C77.5409 70.5472 72.8961 75.1922 67.1661 75.1922H80.353C86.0827 75.1922 90.7278 70.5472 90.7278 64.8174C90.7278 50.8395 79.3966 39.5085 65.4189 39.5085Z" fill="#89CEE2"/>
<path d="M46.2582 66.0707C48.8512 66.0707 50.9533 63.9686 50.9533 61.3755C50.9533 58.7825 48.8512 56.6804 46.2582 56.6804C43.6651 56.6804 41.563 58.7825 41.563 61.3755C41.563 63.9686 43.6651 66.0707 46.2582 66.0707Z" fill="#FAFAFA"/>
<path d="M74.7416 66.0707C77.3346 66.0707 79.4367 63.9686 79.4367 61.3755C79.4367 58.7825 77.3346 56.6804 74.7416 56.6804C72.1485 56.6804 70.0464 58.7825 70.0464 61.3755C70.0464 63.9686 72.1485 66.0707 74.7416 66.0707Z" fill="#FAFAFA"/>
<path d="M76.2926 56.9482C77.1023 59.4252 77.5406 62.0699 77.5406 64.8173C77.5406 64.9271 77.5357 65.0356 77.5324 65.1448C78.6857 64.2893 79.4367 62.9219 79.4367 61.3756C79.4367 59.3269 78.1223 57.5894 76.2926 56.9482Z" fill="#FAFAFA"/>
<path d="M60.1299 111.923H52.8713C50.9417 111.923 49.3774 110.358 49.3774 108.429C49.3774 106.499 50.9417 104.935 52.8713 104.935H60.1299C62.0595 104.935 63.6238 106.499 63.6238 108.429C63.624 110.358 62.0595 111.923 60.1299 111.923Z" fill="#E73089"/>
<path d="M60.5582 104.964C60.5754 105.104 60.587 105.247 60.587 105.392C60.587 107.321 59.0227 108.886 57.0931 108.886H49.8345C49.6892 108.886 49.5469 108.874 49.4063 108.857C49.6178 110.584 51.0871 111.923 52.8714 111.923H60.1299C62.0596 111.923 63.6238 110.359 63.6238 108.429C63.6241 106.644 62.2855 105.175 60.5582 104.964Z" fill="#E73089"/>
<path d="M79.9276 12.4619C82.2447 12.4619 84.1231 10.5835 84.1231 8.26633C84.1231 5.94921 82.2447 4.0708 79.9276 4.0708C77.6105 4.0708 75.7321 5.94921 75.7321 8.26633C75.7321 10.5835 77.6105 12.4619 79.9276 12.4619Z" fill="#FAFAFA"/>
<path d="M80.8318 4.17114C80.8958 4.46277 80.932 4.76456 80.932 5.07533C80.932 7.39253 79.0537 9.27087 76.7365 9.27087C76.4257 9.27087 76.1239 9.23471 75.8323 9.17066C76.2461 11.0528 77.9212 12.462 79.9274 12.462C82.2446 12.462 84.1229 10.5837 84.1229 8.26647C84.1231 6.26005 82.7137 4.58495 80.8318 4.17114Z" fill="#FAFAFA"/>
<path d="M99.2443 92.4785H94.8505C93.4196 90.9251 91.8813 89.4636 90.2419 88.108C98.4023 87.4898 104.854 80.6573 104.854 72.3414V65.0415H111.694C114.542 65.0415 116.858 62.725 116.858 59.8772V52.9996C116.858 50.1521 114.542 47.8354 111.694 47.8354H104.854V40.5664C104.854 32.2833 98.4531 25.4716 90.3386 24.8071C89.0886 20.664 85.6789 17.595 81.6492 16.904V13.8379C84.0267 13.1017 85.7588 10.8826 85.7588 8.26646C85.7588 5.05122 83.1431 2.4353 79.9278 2.4353C76.7126 2.4353 74.0967 5.05122 74.0967 8.26646C74.0967 10.8829 75.8287 13.102 78.2064 13.8379V16.9017C74.1643 17.5816 70.7947 20.6163 69.5336 24.7494H31.9627C23.241 24.7494 16.1455 31.8449 16.1455 40.5666V47.8356H9.07643C6.22891 47.8356 3.91218 50.1521 3.91218 52.9998V59.8775C3.91218 62.725 6.22891 65.0417 9.07643 65.0417H16.1455V72.3416C16.1455 80.6557 22.5946 87.487 30.7524 88.1078C29.1145 89.4596 27.5741 90.9177 26.137 92.4785H21.7554C9.7717 92.4785 0.022223 102.228 0.022223 114.212C-0.21505 116.483 1.47446 118.58 3.80914 118.565H83.8402C84.791 118.565 85.5617 117.794 85.5617 116.843C85.5617 115.892 84.791 115.122 83.8402 115.122H78.7833V105.339C78.7833 99.4447 73.9877 94.6489 68.0928 94.6489H52.9068C47.012 94.6489 42.2162 99.4447 42.2162 105.339V115.122H18.1573C18.8472 111.87 19.9116 108.708 21.3319 105.698C21.7377 104.838 21.3693 103.813 20.5095 103.407C19.6497 103.001 18.6241 103.369 18.2181 104.229C16.5803 107.7 15.3817 111.358 14.6448 115.122H3.80914C3.35043 115.131 3.48112 114.495 3.46481 114.212C3.46481 104.126 11.6699 95.9211 21.7554 95.9211H23.2587C22.8572 96.4507 22.4644 96.9881 22.0837 97.5366C21.5418 98.3176 21.7356 99.3901 22.5166 99.9322C23.2885 100.47 24.3669 100.286 24.9123 99.4993C28.0292 95.0069 31.9081 91.1952 36.4427 88.1586H84.5561C93.9374 94.4438 100.512 104.164 102.842 115.122H92.189C91.2383 115.122 90.4676 115.892 90.4676 116.843C90.4676 117.794 91.2383 118.565 92.189 118.565H117.191C119.526 118.58 121.215 116.483 120.978 114.212C120.978 102.228 111.228 92.4785 99.2443 92.4785ZM45.6591 105.339C45.6591 101.343 48.9105 98.0917 52.9068 98.0917H68.0928C72.0891 98.0917 75.3405 101.343 75.3405 105.339V115.122H45.6591V105.339ZM111.694 51.2784C112.643 51.2784 113.416 52.0505 113.416 52.9998V59.8775C113.416 60.8268 112.643 61.5989 111.694 61.5989H104.854V51.2784H111.694ZM79.9276 5.87789C81.2444 5.87789 82.3157 6.94917 82.3157 8.26623C82.3157 9.58328 81.2444 10.6546 79.9276 10.6546C78.6105 10.6546 77.5393 9.58328 77.5393 8.26623C77.5393 6.94917 78.6105 5.87789 79.9276 5.87789ZM79.9276 20.198C82.8054 20.198 85.4085 22.0314 86.6459 24.7494H73.2029C74.4325 22.0227 77.0177 20.198 79.9276 20.198ZM9.07643 61.5986C8.1271 61.5986 7.35501 60.8265 7.35501 59.8772V52.9996C7.35501 52.0503 8.1271 51.2782 9.07643 51.2782H16.1455V61.5984H9.07643V61.5986ZM19.5883 72.3414V40.5666C19.5883 33.7433 25.1394 28.1922 31.9627 28.1922H89.0369C95.8601 28.1922 101.411 33.7433 101.411 40.5666V72.3414C101.411 79.1647 95.8601 84.7158 89.0369 84.7158H31.9627C25.1396 84.7158 19.5883 79.1647 19.5883 72.3414ZM117.535 114.778C117.535 114.967 117.381 115.122 117.191 115.122H106.353C104.978 108.111 101.998 101.548 97.7314 95.9213H99.2441C109.33 95.9213 117.535 104.126 117.535 114.212V114.778Z" fill="#333333"/>
<path d="M40.647 76.9134H80.353C87.0228 76.9134 92.4489 71.487 92.4489 64.8174C92.4489 60.965 91.6549 57.2433 90.0887 53.7556C89.6993 52.8882 88.6807 52.5007 87.8134 52.8904C86.9463 53.2798 86.5587 54.2984 86.9482 55.1657C88.3139 58.207 89.0061 61.4544 89.0061 64.8174C89.0061 69.5888 85.1242 73.4708 80.3527 73.4708H40.647C35.8753 73.4708 31.9934 69.5888 31.9934 64.8174C31.9934 51.8113 42.5747 41.2299 55.5808 41.2299H65.4189C72.2167 41.2299 78.6864 44.1651 83.1693 49.2833C83.7958 49.9982 84.8834 50.0703 85.5983 49.444C86.3134 48.8177 86.3855 47.7301 85.759 47.015C80.6224 41.1508 73.2085 37.7874 65.4189 37.7874H55.5808C40.6763 37.7874 28.5508 49.9131 28.5508 64.8176C28.5508 71.487 33.9771 76.9134 40.647 76.9134Z" fill="#333333"/>
<path d="M39.8419 61.3755C39.8419 64.9136 42.7203 67.7919 46.2582 67.7919C49.7962 67.7919 52.6745 64.9134 52.6745 61.3755C52.6745 57.8375 49.796 54.9592 46.2582 54.9592C42.7203 54.959 39.8419 57.8375 39.8419 61.3755ZM49.2319 61.3755C49.2319 63.0152 47.8978 64.3493 46.2582 64.3493C44.6185 64.3493 43.2845 63.0152 43.2845 61.3755C43.2845 59.7359 44.6185 58.4018 46.2582 58.4018C47.8978 58.4018 49.2319 59.7357 49.2319 61.3755Z" fill="#333333"/>
<path d="M68.3253 61.3755C68.3253 64.9136 71.2038 67.7919 74.7416 67.7919C78.2797 67.7919 81.1579 64.9134 81.1579 61.3755C81.1579 57.8375 78.2795 54.9592 74.7416 54.9592C71.2038 54.959 68.3253 57.8375 68.3253 61.3755ZM77.7153 61.3755C77.7153 63.0152 76.3813 64.3493 74.7416 64.3493C73.102 64.3493 71.7679 63.0152 71.7679 61.3755C71.7679 59.7359 73.102 58.4018 74.7416 58.4018C76.3813 58.4018 77.7153 59.7357 77.7153 61.3755Z" fill="#333333"/>
<path d="M26.7599 42.1104C28.2282 42.1104 29.4186 40.92 29.4186 39.4517C29.4186 37.9834 28.2282 36.793 26.7599 36.793C25.2916 36.793 24.1012 37.9834 24.1012 39.4517C24.1012 40.9202 25.2916 42.1104 26.7599 42.1104Z" fill="#333333"/>
<path d="M29.4186 47.8562C29.4186 46.3879 28.2282 45.1975 26.7599 45.1975C25.2916 45.1975 24.1012 46.3879 24.1012 47.8562C24.1012 49.3245 25.2916 50.5149 26.7599 50.5149C28.2282 50.5151 29.4186 49.3247 29.4186 47.8562Z" fill="#333333"/>
<path d="M60.1299 103.213H52.8713C49.9955 103.213 47.6558 105.553 47.6558 108.429C47.6558 111.305 49.9955 113.644 52.8713 113.644H60.1299C63.0056 113.644 65.3452 111.304 65.3452 108.429C65.3452 105.553 63.0056 103.213 60.1299 103.213ZM60.1299 110.201H52.8713C51.8939 110.201 51.0986 109.406 51.0986 108.429C51.0986 107.451 51.8939 106.656 52.8713 106.656H60.1299C61.1071 106.656 61.9024 107.451 61.9024 108.429C61.9024 109.406 61.1071 110.201 60.1299 110.201Z" fill="#333333"/>
</g>
<defs>
<clipPath id="clip0_7268_10097">
<rect width="121" height="121" fill="white"/>
</clipPath>
</defs>
</svg>
