<svg xmlns="http://www.w3.org/2000/svg" width="60" height="60" viewBox="0 0 71 60" fill="none" data-inject-url="http://teste.maxia.education/packs/media/svg/infantil-5481e246.svg">
<g clip-path="url(#clip0--inject-3)">
<path d="M70.9597 48.7661C70.9117 48.8915 70.8531 49.0146 70.8144 49.1435C70.2648 50.9657 69.0566 52.0591 67.2038 52.4939C66.9378 52.5572 66.6179 52.7529 66.489 52.9814C63.9789 57.4802 60.1421 59.8099 55.0128 59.9552C52.5964 60.0243 50.166 60.1181 47.8117 59.3247C44.5085 58.2122 42.0328 56.1251 40.3843 53.0634C40.191 52.7025 39.9859 52.5396 39.564 52.4693C38.5056 52.2995 37.5417 51.7598 36.8439 50.946C36.146 50.1323 35.7595 49.0975 35.7531 48.0255C35.7413 47.3587 35.6956 46.6697 35.8328 46.0263C36.1703 44.4396 37.2601 43.5583 38.6828 43.2208C38.9113 41.654 38.9851 40.1165 39.3718 38.6634C40.0924 35.9897 41.6622 33.6225 43.845 31.9185C46.0277 30.2145 48.7051 29.2659 51.4738 29.2157C53.6839 29.1759 55.9081 29.013 58.0914 29.5603C60.8807 30.2539 63.3604 31.8551 65.1403 34.1121C66.9201 36.369 67.8992 39.1536 67.9234 42.0279C67.9091 42.3275 67.9142 42.6277 67.9386 42.9267C67.9597 43.0743 68.0816 43.2911 68.2035 43.3286C69.6917 43.7845 70.491 44.8708 70.9597 46.2724V48.7661ZM53.4249 39.8939V40.0017C51.9484 40.0017 50.4695 39.9525 48.9953 40.0122C45.9343 40.1365 43.4019 41.4185 41.3499 43.6708C41.2037 43.8174 41.0847 43.9888 40.9984 44.1771C40.5753 45.2447 40.566 45.2599 39.4081 45.2974C38.6218 45.3232 37.9679 45.7509 37.8988 46.454C37.8125 47.1849 37.8382 47.9247 37.9749 48.6478C38.0854 49.176 38.3839 49.6462 38.815 49.9708C39.2461 50.2954 39.7805 50.4524 40.3187 50.4126C41.2269 50.347 41.6347 50.7642 41.9839 51.5177C43.4101 54.615 45.7749 56.7208 49.0996 57.4544C50.8972 57.8505 52.805 57.8493 54.6636 57.8447C59.4343 57.8353 62.8949 55.6568 64.9328 51.315C65.2398 50.6611 65.6558 50.3927 66.3847 50.4185C67.6257 50.463 68.6031 49.6333 68.821 48.4087C68.8746 48.0205 68.8918 47.6282 68.8726 47.2368C68.8585 46.0005 68.2632 45.3747 67.0222 45.3021C66.4867 45.2704 66.1164 45.0618 65.8867 44.5544C65.7027 44.149 65.5011 43.7224 65.2035 43.4036C63.5757 41.6669 61.5906 40.488 59.2269 40.1904C57.3097 39.9478 55.3585 39.9818 53.4249 39.8939ZM41.0382 40.9825C41.2538 40.8243 41.3816 40.7341 41.507 40.638C43.6163 39.0302 45.973 38.0107 48.6331 37.9345C51.7441 37.8447 54.8578 37.838 57.9742 37.9146C60.7058 37.9802 63.1433 38.9763 65.3031 40.6474C65.405 40.7271 65.521 40.7904 65.7109 40.9134C65.6945 40.6216 65.7003 40.42 65.6687 40.2267C64.9867 36.0782 61.6515 32.4349 57.489 31.6275C55.6328 31.2677 53.6839 31.3228 51.7761 31.3111C48.5535 31.2935 45.8593 32.5638 43.7089 34.9439C42.1925 36.6302 41.3113 38.6165 41.0382 40.9825Z" fill="#009DCC"></path>
<path d="M51.9186 22.2663C50.9295 22.6389 50.0518 22.9471 49.1963 23.3069C48.9608 23.4231 48.7674 23.6099 48.6432 23.8413C46.651 27.4542 43.6815 29.8671 39.6022 30.4764C35.7408 31.053 31.8162 31.2206 28.1483 29.3573C25.7739 28.1745 23.8351 26.2702 22.61 23.9174C22.3955 23.512 22.133 23.3585 21.6865 23.2342C20.8815 23.0116 20.1256 22.6143 19.2549 22.251C19.1975 22.3202 19.0428 22.51 18.8858 22.6987C17.21 24.7061 15.0561 25.7643 12.451 25.8827C11.1619 25.9413 10.4518 25.2522 10.4471 23.962C10.4342 20.1534 10.3967 16.3448 10.4576 12.5338C10.5244 8.29986 13.6756 5.28345 17.9272 5.26822C18.2272 5.26822 18.5283 5.2483 18.8272 5.26822C19.6053 5.3315 20.1854 5.20963 20.749 4.47955C21.608 3.36627 22.9276 3.3897 24.1815 3.77642C24.5776 3.89947 24.7826 3.85494 25.0686 3.58541C27.6186 1.19244 30.6549 -0.0321701 34.1612 0.000642381C35.9565 0.0170486 37.7694 0.0100174 39.5436 0.247908C42.0807 0.58658 44.251 1.81236 46.0967 3.58189C46.3862 3.85963 46.5983 3.91353 46.9908 3.77174C48.5143 3.2233 49.8772 3.68853 50.8428 4.96353C50.9752 5.13814 51.2846 5.24244 51.5213 5.26236C52.7588 5.36666 54.035 5.27525 55.2315 5.54244C56.7664 5.89005 58.1392 6.74502 59.1282 7.9692C60.1172 9.19338 60.6646 10.7153 60.6819 12.2889C60.7369 16.2135 60.7065 20.1405 60.6959 24.0639C60.6959 25.2159 59.9647 25.9272 58.8104 25.8897C56.2053 25.8065 54.035 24.7811 52.3358 22.7913C52.153 22.5815 51.9889 22.3624 51.9186 22.2663ZM51.0408 18.3991C51.0408 16.7163 50.653 16.3061 49.0158 16.0483C48.6795 15.9944 48.3479 15.6393 48.1041 15.3452C47.8182 15.0053 47.6951 14.5249 47.3916 14.2049C45.2588 11.9889 42.649 10.8194 39.5623 10.7936C36.9311 10.7717 34.3002 10.7717 31.6697 10.7936C28.5057 10.8159 25.8408 12.0135 23.6904 14.3292C23.4385 14.5987 23.2744 14.9667 23.1279 15.3135C22.9147 15.8186 22.576 16.0659 22.0217 16.087C20.4162 16.1491 20.0201 16.5792 20.0295 18.2151C20.0236 18.5146 20.0389 18.8142 20.0752 19.1116C20.2522 20.3573 21.26 21.2913 22.501 21.2104C23.4092 21.1518 23.81 21.5549 24.1639 22.3167C25.583 25.3799 27.9408 27.3721 31.201 28.2862C33.2166 28.8522 35.2791 28.6881 37.324 28.6378C38.3831 28.6103 39.4336 28.44 40.4471 28.1315C43.5561 27.1835 45.7463 25.142 47.094 22.1971C47.3401 21.6592 47.6131 21.2327 48.2787 21.2092C50.2322 21.1424 51.035 20.3198 51.0385 18.3991H51.0408ZM47.9342 11.6983C47.5229 7.41627 44.3014 3.65572 40.0826 2.48502C38.019 1.91197 35.9119 2.069 33.819 2.09713C31.5994 2.13215 29.4444 2.84944 27.6467 4.15159C25.8489 5.45375 24.4954 7.27766 23.7701 9.37564C23.5194 10.101 23.3881 10.8674 23.2006 11.6151C23.3945 11.6118 23.5818 11.5437 23.7326 11.4217C26.0881 9.6358 28.733 8.69478 31.7014 8.69478C34.4026 8.69478 37.1026 8.69478 39.8037 8.70533C41.8201 8.71805 43.8008 9.23792 45.5635 10.217C46.3651 10.6506 47.1139 11.1838 47.9342 11.6983ZM50.1971 13.9717H50.2979C50.2979 13.7948 50.2885 13.6202 50.2979 13.4409C50.3389 12.8268 50.7233 12.4413 51.2998 12.426C51.4329 12.418 51.5663 12.4364 51.6922 12.4803C51.8181 12.5242 51.934 12.5927 52.0332 12.6818C52.1324 12.7709 52.2129 12.8788 52.2701 12.9992C52.3273 13.1197 52.36 13.2503 52.3662 13.3835C52.4143 13.9331 52.385 14.4897 52.4026 15.0428C52.4096 15.2456 52.392 15.4893 52.494 15.6417C53.2862 16.8253 53.1854 18.1389 53.0987 19.4561C53.0822 19.7022 53.0553 19.9764 53.1408 20.1956C53.8873 22.101 56.4221 23.7463 58.5596 23.7112C58.5839 23.5811 58.5999 23.4496 58.6076 23.3174C58.6076 19.7186 58.617 16.1198 58.5983 12.5221C58.5978 12.0379 58.5252 11.5564 58.3826 11.0936C57.3479 7.84049 54.5787 6.97564 51.274 7.47603C51.2531 7.51607 51.2374 7.5586 51.2272 7.6026C51.2126 7.71682 51.2067 7.832 51.2096 7.94713C51.2658 9.05103 51.0854 10.0635 50.1655 10.8159C50.1191 10.8634 50.0828 10.9197 50.0587 10.9815C50.0345 11.0433 50.023 11.1093 50.0248 11.1756C50.0682 12.1108 50.1326 13.0413 50.1924 13.9717H50.1971ZM19.9627 7.36939C19.2783 7.36939 18.683 7.36939 18.0877 7.36939C14.7186 7.37642 12.5799 9.4858 12.5611 12.835C12.5483 16.2487 12.5611 19.6635 12.5611 23.0784C12.5611 23.2963 12.5893 23.5131 12.608 23.7721C14.8404 23.5553 16.5279 22.5674 17.6869 20.7428C17.9213 20.3784 17.9471 19.8522 17.9694 19.3963C18.0033 18.7085 17.8264 17.9901 17.9576 17.3303C18.233 15.9335 18.9139 14.635 18.867 13.1467C18.8518 12.651 19.3709 12.4073 19.8936 12.4436C20.4162 12.4799 20.742 12.7717 20.8369 13.2897C20.8768 13.5053 20.8779 13.7268 20.8967 13.946C21.0592 13.0076 21.1525 12.0585 21.1756 11.1065C21.1756 10.9729 20.9752 10.8206 20.8475 10.6975C20.2908 10.162 19.9674 9.52564 19.9557 8.74049C19.9498 8.32095 19.9545 7.90611 19.9545 7.36939H19.9627ZM22.1014 7.78306L23.1959 5.74283C22.0908 5.62564 21.9256 5.91744 22.0932 7.78306H22.1014ZM47.9658 5.72877C48.3174 6.35455 48.642 6.93697 48.9994 7.5733C49.2725 6.09439 48.9983 5.53306 47.9658 5.72877Z" fill="#009DCC"></path>
<path d="M3.15573 43.1786C3.10533 41.3375 3.26471 39.5821 3.85885 37.877C5.63658 32.8039 10.3698 29.3106 15.7346 29.218C17.9671 29.1793 20.2135 29.0118 22.4202 29.5801C28.1799 31.0637 32.0999 36.0641 32.1772 42.0946C32.1866 42.8411 32.2604 43.2957 33.0971 43.6344C34.4624 44.1864 35.1538 45.3747 35.2065 46.8641C35.2299 47.552 35.2569 48.2704 35.1092 48.9301C34.6698 50.9094 33.3796 52.0625 31.4108 52.5067C31.1425 52.5751 30.9101 52.7425 30.7604 52.9754C28.2046 57.5528 24.294 59.8684 19.0768 59.9598C16.8889 59.9985 14.6917 60.0934 12.5448 59.4594C9.09713 58.4438 6.49908 56.3711 4.75065 53.2414C4.49987 52.7915 4.26549 52.5325 3.70182 52.4282C1.52565 52.0321 0.0420533 50.1805 0.0151002 47.9551C0.00220954 47.3563 -0.0317748 46.7422 0.0795533 46.161C0.393616 44.5039 1.48229 43.5723 3.15573 43.1786ZM5.29088 40.8688C5.4151 40.8571 5.46901 40.8688 5.50182 40.8465C5.61901 40.7704 5.72448 40.6836 5.83463 40.6004C7.92877 39.009 10.2749 38.0094 12.9104 37.9356C16.0475 37.8477 19.1893 37.8981 22.3299 37.9122C22.8836 37.9306 23.4347 37.9952 23.9776 38.1055C24.6526 38.2227 25.0323 38.7254 24.9397 39.3125C24.8471 39.8997 24.3479 40.2395 23.6506 40.1715C23.1456 40.1223 22.6428 40.0133 22.1378 40.011C19.1366 39.9969 16.1319 39.9336 13.1331 40.0286C10.1342 40.1235 7.67799 41.4348 5.66471 43.6192C5.52408 43.7704 5.32369 43.9344 5.29908 44.1125C5.15846 45.1344 4.50221 45.3325 3.60924 45.3114C2.84049 45.2926 2.22994 45.7801 2.15612 46.5243C2.08049 47.2109 2.10496 47.9048 2.22877 48.5844C2.33288 49.1249 2.63049 49.6088 3.06583 49.9455C3.50116 50.2823 4.04435 50.4487 4.59362 50.4137C5.45612 50.361 5.88268 50.709 6.23424 51.4614C7.67213 54.6137 10.0639 56.7747 13.4565 57.4672C15.4628 57.8762 17.5874 57.8997 19.6475 57.8188C24.137 57.6325 27.3292 55.3672 29.2229 51.2997C29.5171 50.6692 29.9143 50.4043 30.6163 50.4243C32.0659 50.4641 33.1065 49.4235 33.1393 47.9739C33.1475 47.6504 33.1522 47.327 33.1393 47.0047C33.0924 46.0309 32.4503 45.3442 31.4776 45.3125C30.7323 45.2879 30.2389 45.043 30.0995 44.252C30.0477 44.0522 29.9366 43.8728 29.7807 43.7375C29.0307 43.0579 28.2796 42.377 27.4979 41.7348C26.912 41.2508 26.7385 40.7071 27.096 40.1868C27.4534 39.6664 28.0651 39.5926 28.6839 40.0016C29.1151 40.2875 29.5299 40.5969 30.0092 40.9391C30.0092 40.7809 30.0163 40.7141 30.0092 40.6497C29.469 36.3137 26.0928 32.4758 21.7686 31.6344C19.8936 31.27 17.9108 31.2911 15.9831 31.3438C14.7151 31.3778 13.3827 31.5922 12.2096 32.0563C8.21822 33.6207 5.98698 36.6383 5.29088 40.8688Z" fill="#009DCC"></path>
<path d="M53.4188 55.9518C51.9051 55.9506 50.4415 55.4087 49.292 54.4237C48.1425 53.4388 47.3826 52.0756 47.1493 50.5799C46.9735 49.3939 47.6286 48.6029 48.8415 48.5982C51.8884 48.5857 54.9329 48.5857 57.9751 48.5982C59.1657 48.6041 59.795 49.3658 59.631 50.5342C59.4185 52.0326 58.6739 53.4046 57.5333 54.3993C56.3927 55.394 54.9323 55.9451 53.4188 55.9518ZM49.3935 50.717C49.7274 52.5439 51.6575 53.9725 53.5853 53.8436C55.513 53.7147 57.2896 52.2439 57.3435 50.717H49.3935Z" fill="#009DCC"></path>
<path d="M48.3098 47.3947C48.0046 47.386 47.7087 47.2869 47.4598 47.11C47.2109 46.933 47.02 46.6862 46.9114 46.4008C46.8028 46.1154 46.7813 45.8042 46.8497 45.5065C46.9181 45.2089 47.0732 44.9382 47.2954 44.7288C47.5177 44.5193 47.7971 44.3805 48.0982 44.3299C48.3994 44.2793 48.7088 44.3192 48.9873 44.4446C49.2658 44.5699 49.5008 44.775 49.6627 45.034C49.8245 45.293 49.9059 45.5941 49.8965 45.8994C49.8831 46.3076 49.7087 46.694 49.4114 46.9741C49.1141 47.2542 48.7181 47.4054 48.3098 47.3947Z" fill="#009DCC"></path>
<path d="M60.0083 45.8479C60.0064 46.0512 59.9644 46.2521 59.8848 46.4392C59.8053 46.6263 59.6896 46.7959 59.5445 46.9383C59.3994 47.0807 59.2277 47.1931 59.0391 47.2691C58.8506 47.3451 58.6489 47.3832 58.4456 47.3813C58.2423 47.3794 58.0414 47.3374 57.8543 47.2579C57.6672 47.1783 57.4976 47.0627 57.3552 46.9175C57.2128 46.7724 57.1004 46.6007 57.0244 46.4121C56.9484 46.2236 56.9103 46.0219 56.9122 45.8186C56.9161 45.4081 57.0829 45.0158 57.376 44.7283C57.669 44.4407 58.0643 44.2813 58.4749 44.2852C58.8854 44.2891 59.2777 44.4559 59.5652 44.749C59.8528 45.0421 60.0122 45.4374 60.0083 45.8479Z" fill="#009DCC"></path>
<path d="M35.6184 19.3881C37.1184 19.3881 38.6173 19.3788 40.1161 19.3881C41.336 19.3975 41.9911 20.1616 41.8423 21.3499C41.4403 24.426 38.7098 26.7569 35.5317 26.7405C32.4052 26.7229 29.7333 24.371 29.3513 21.2995C29.2106 20.1745 29.8505 19.4057 30.9825 19.3917C32.5282 19.3741 34.0739 19.3881 35.6184 19.3881ZM39.6028 21.5116H31.6341C31.7513 23.069 33.5208 24.5444 35.3501 24.6463C37.354 24.7588 39.2149 23.4065 39.6016 21.5116H39.6028Z" fill="#009DCC"></path>
<path d="M40.6176 18.1971C40.3102 18.1907 40.0118 18.093 39.7601 17.9166C39.5083 17.7402 39.3148 17.4929 39.2039 17.2062C39.0931 16.9195 39.07 16.6063 39.1375 16.3064C39.205 16.0065 39.3602 15.7335 39.5833 15.522C39.8063 15.3105 40.0872 15.1701 40.3903 15.1186C40.6933 15.0671 41.0048 15.1068 41.2852 15.2328C41.5656 15.3587 41.8023 15.5652 41.9651 15.8259C42.1279 16.0866 42.2095 16.3899 42.1996 16.6971C42.195 16.8998 42.1504 17.0995 42.0683 17.2848C41.9862 17.4701 41.8681 17.6373 41.7211 17.7767C41.574 17.9162 41.4008 18.0251 41.2114 18.0973C41.0219 18.1694 40.8201 18.2034 40.6176 18.1971Z" fill="#009DCC"></path>
<path d="M32.0809 16.6821C32.0789 16.8848 32.0367 17.0851 31.9567 17.2714C31.8767 17.4576 31.7605 17.6261 31.6148 17.7671C31.4692 17.908 31.297 18.0187 31.1082 18.0925C30.9194 18.1664 30.7179 18.202 30.5152 18.1974C30.2078 18.1943 29.9082 18.0998 29.6545 17.9261C29.4009 17.7523 29.2047 17.507 29.0908 17.2214C28.9769 16.9358 28.9505 16.6228 29.0149 16.3222C29.0793 16.0215 29.2317 15.7468 29.4526 15.533C29.6736 15.3192 29.9531 15.1759 30.2557 15.1213C30.5583 15.0667 30.8703 15.1034 31.152 15.2265C31.4337 15.3497 31.6724 15.5539 31.8378 15.8131C32.0032 16.0722 32.0878 16.3748 32.0809 16.6821Z" fill="#009DCC"></path>
<path d="M17.6399 55.9518C16.114 55.9373 14.6443 55.3738 13.5001 54.3642C12.3558 53.3547 11.6135 51.9667 11.409 50.4545C11.2707 49.4326 11.9246 48.6123 12.9676 48.6053C16.1043 48.5834 19.2418 48.5834 22.3801 48.6053C23.4254 48.6123 24.0781 49.4326 23.9375 50.4545C23.7331 51.9788 22.9817 53.3768 21.8231 54.3881C20.6645 55.3994 19.1778 55.9552 17.6399 55.9518ZM13.6731 50.7264C14.0071 52.4842 15.7684 53.8494 17.6703 53.8529C19.5723 53.8564 21.3289 52.4994 21.6735 50.7264H13.6731Z" fill="#009DCC"></path>
<path d="M14.1586 45.8509C14.1586 46.1567 14.0676 46.4556 13.8973 46.7096C13.727 46.9636 13.4851 47.1612 13.2022 47.2774C12.9193 47.3936 12.6082 47.423 12.3086 47.3619C12.0089 47.3009 11.7342 47.1521 11.5193 46.9346C11.3044 46.717 11.159 46.4405 11.1016 46.1401C11.0442 45.8397 11.0775 45.5291 11.1971 45.2476C11.3167 44.9662 11.5172 44.7266 11.7733 44.5594C12.0294 44.3923 12.3294 44.305 12.6352 44.3087C12.8368 44.3087 13.0365 44.3487 13.2225 44.4264C13.4086 44.5042 13.5774 44.6181 13.7191 44.7615C13.8608 44.905 13.9726 45.0751 14.0481 45.2621C14.1235 45.4491 14.1611 45.6493 14.1586 45.8509Z" fill="#009DCC"></path>
<path d="M24.2777 45.8604C24.2758 46.1661 24.1831 46.4644 24.0113 46.7173C23.8394 46.9703 23.5963 47.1664 23.3128 47.2809C23.0293 47.3953 22.7181 47.4229 22.4189 47.3601C22.1197 47.2973 21.8458 47.147 21.6322 46.9283C21.4186 46.7095 21.2748 46.4322 21.2191 46.1316C21.1635 45.8309 21.1984 45.5205 21.3196 45.2398C21.4407 44.9591 21.6425 44.7207 21.8995 44.5549C22.1564 44.3891 22.4568 44.3035 22.7625 44.3088C22.9642 44.3099 23.1638 44.351 23.3495 44.4298C23.5352 44.5086 23.7035 44.6235 23.8444 44.7678C23.9854 44.9122 24.0963 45.0831 24.1707 45.2707C24.2451 45.4582 24.2814 45.6587 24.2777 45.8604Z" fill="#009DCC"></path>
</g>
<defs>
<clipPath id="clip0--inject-3">
<rect width="70.9547" height="60" fill="white"></rect>
</clipPath>
</defs>
</svg>