<svg xmlns="http://www.w3.org/2000/svg" width="42" viewBox="0 0 99 51" fill="none" data-inject-url="http://teste.maxia.education/packs/media/svg/logo-maxia-symbol-26bdec6e.svg">
<path d="M49.2169 33.0082C47.602 33.0082 46.017 32.2606 45.0302 30.8252L29.0907 8.03745C27.4759 5.73475 28.0441 2.5349 30.3468 0.920024C32.6494 -0.694854 35.8493 -0.126656 37.4642 2.17604L53.4036 24.9638C55.0185 27.2665 54.4503 30.4663 52.1476 32.0812C51.2504 32.7092 50.2337 33.0082 49.2169 33.0082Z" fill="#00A6CE"></path>
<path d="M93.327 50.5028C91.7121 50.5028 90.1271 49.7551 89.1402 48.3197L60.9696 8.03745C59.3547 5.73475 59.9229 2.5349 62.2256 0.920024C64.5283 -0.694854 67.7281 -0.126656 69.343 2.17604L97.5137 42.4583C99.1285 44.761 98.5603 47.9608 96.2577 49.5757C95.3605 50.2037 94.3138 50.5028 93.327 50.5028Z" fill="#73308A"></path>
<path d="M36.9855 50.5028C35.9688 50.5028 34.952 50.2037 34.0548 49.5757C31.7521 47.9608 31.1839 44.761 32.7988 42.4583L60.9694 2.17604C62.5843 -0.126656 65.7842 -0.694854 68.0869 0.920024C70.3896 2.5349 70.9578 5.73475 69.3429 8.03745L41.1722 48.3197C40.1854 49.7252 38.6004 50.5028 36.9855 50.5028Z" fill="#73308A"></path>
<path d="M61.4481 50.5027C59.8332 50.5027 58.2483 49.7551 57.2614 48.3197L52.8653 42.0097C51.2505 39.707 51.8187 36.5071 54.1214 34.8923C56.424 33.2774 59.6239 33.8456 61.2388 36.1483L65.6348 42.4583C67.2497 44.761 66.6815 47.9608 64.3788 49.5757C63.4817 50.2037 62.4649 50.5027 61.4481 50.5027Z" fill="#73308A"></path>
<path d="M5.10674 50.5028C4.08997 50.5028 3.07319 50.2037 2.17604 49.5757C-0.126657 47.9608 -0.694854 44.761 0.920024 42.4583L29.0907 2.17604C30.7055 -0.126656 33.9054 -0.694854 36.2081 0.920024C38.5108 2.5349 39.079 5.73475 37.4641 8.03745L9.32337 48.3197C8.30659 49.7252 6.72162 50.5028 5.10674 50.5028Z" fill="#73308A"></path>
</svg>